# xmcd CD database file
#
# Track frame offsets:
#	150
#	14710
#	26245
#	42339
#	62373
#	76703
#	91990
#	106614
#	120238
#	135494
#	152974
#	167037
#	181504
#	194442
#	209619
#	226803
#
# Disc length: 3282 seconds
#
# Revision: 0
# Processed by: cddbd v1.5.1PL2 Copyright (c) Steve Scherf et al.
# Submitted via: Feurio! 1.68 - http://www.feurio.com
#
DISCID=c20cd010
DTITLE=Rosanne Cash - Hits 1979 - 1989
DYEAR=1900
DGENRE=
TTITLE0=Seven Year Ache
TTITLE1=I Don't Want To Spoil The Party
TTITLE2=Hold On
TTITLE3=Blue Moon With Heartache
TTITLE4=My Baby Thinks He's A Train
TTITLE5=No Memories Hangin' Around
TTITLE6=I Don't Know Why You Don't Want Me
TTITLE7=I Wonder
TTITLE8=Never Be You
TTITLE9=The Way Make A Broken Heart
TTITLE10=Tennessee Flat Top Box
TTITLE11=Black And White
TTITLE12=Fair And Tender Ladies
TTITLE13=Queen Of Hearts
TTITLE14=You Ain't Goin' Nowhere
TTITLE15=Rosanne Cash and Nitty Gritty Dirt Band - One Step Over the Line
EXTD=
EXTT0=
EXTT1=
EXTT2=
EXTT3=
EXTT4=
EXTT5=
EXTT6=
EXTT7=
EXTT8=
EXTT9=
EXTT10=
EXTT11=
EXTT12=
EXTT13=
EXTT14=
EXTT15=
PLAYORDER=
